<svg width="50" height="50" viewBox="0 0 49 52" fill="none" xmlns="http://www.w3.org/2000/svg">
<path d="M29.8973 49.5352H12.9311C11.7031 49.5352 10.5183 49.1688 9.50476 48.4756L5.84814 45.9734C5.24344 45.5601 4.58328 45.2416 3.88697 45.0269C3.4231 44.8831 2.94711 44.7866 2.46507 44.7379V25.5376H2.73558C4.76267 25.5376 6.55177 24.1552 7.08626 22.1758C7.08782 22.1702 7.08918 22.1645 7.09055 22.1589C7.09153 22.1555 7.0925 22.1522 7.09338 22.1489C7.81303 19.5208 10.0231 17.5831 12.724 17.2123C13.0145 17.1724 13.2533 16.9631 13.3307 16.6801L14.8747 11.0443C14.9816 10.6541 14.7519 10.2512 14.3618 10.1444C13.9719 10.0375 13.5688 10.2671 13.4619 10.6573L12.0415 15.8418C8.98239 16.4465 6.51564 18.722 5.68232 21.7551C5.67744 21.7718 5.67285 21.7887 5.66875 21.8055C5.30263 23.1411 4.09811 24.0728 2.73539 24.0728H1.73244C1.32794 24.0728 1 24.4007 1 24.8052V45.4336C1 45.8381 1.32794 46.166 1.73244 46.166C2.31712 46.166 2.89603 46.2535 3.45415 46.4264C4.0109 46.5981 4.53816 46.8525 5.02098 47.1826L8.6774 49.6847C9.93563 50.5453 11.4065 51.0002 12.9308 51.0002H29.897C30.3015 51.0002 30.6294 50.6722 30.6294 50.2677C30.6294 49.8632 30.3019 49.5352 29.8973 49.5352Z" fill="#00386E" stroke="#00386E" stroke-width="1.5"/>
<path d="M38.8517 25.251C38.8071 22.9293 36.8809 21.0404 34.5577 21.0404H23.0009L25.3674 12.3988C25.7889 10.8602 25.5861 9.2496 24.7962 7.86393C24.0063 6.47816 22.7239 5.48312 21.1857 5.06221C20.6689 4.92051 20.1371 4.84863 19.6052 4.84863C17.5381 4.84863 15.5858 5.94533 14.51 7.7107C14.2994 8.05612 14.4088 8.50681 14.7542 8.71727C15.0996 8.92791 15.5503 8.81844 15.7608 8.47302C16.5725 7.14096 18.0456 6.31351 19.6052 6.31351C20.0062 6.31351 20.4076 6.3678 20.7987 6.47503C21.9598 6.79271 22.9275 7.54361 23.5235 8.58933C24.1195 9.63506 24.2727 10.8505 23.9546 12.0118L21.4821 21.0402H19.926C19.5215 21.0402 19.1935 21.3681 19.1935 21.7726C19.1935 22.1771 19.5215 22.505 19.926 22.505L34.5578 22.5052C36.0886 22.5052 37.3578 23.7496 37.3872 25.279C37.4014 26.0244 37.1141 26.7357 36.5784 27.2818C36.0286 27.8422 35.2665 28.1636 34.4875 28.1636H33.6447C33.2402 28.1636 32.9123 28.4915 32.9123 28.896C32.9123 29.3005 33.2402 29.6284 33.6447 29.6284C34.4006 29.6284 35.1112 29.9227 35.6453 30.4569C36.1796 30.9911 36.4738 31.702 36.4738 32.4586C36.4738 34.0186 35.2046 35.2877 33.6446 35.2877H32.7315C32.327 35.2877 31.9991 35.6157 31.9991 36.0202C31.9991 36.4247 32.327 36.7526 32.7315 36.7526C34.2622 36.7526 35.5315 37.997 35.5608 39.5264C35.575 40.2718 35.2878 40.9831 34.752 41.5292C34.2022 42.0895 33.4401 42.4109 32.6611 42.4109H31.3623C30.9578 42.4109 30.6298 42.7388 30.6298 43.1433C30.6298 43.5478 30.9578 43.8758 31.3623 43.8758C32.1181 43.8758 32.8287 44.17 33.3626 44.7038C33.8971 45.2391 34.1914 45.9501 34.1914 46.7058C34.1914 47.8271 33.5281 48.844 32.5014 49.2964C32.1313 49.4596 31.9634 49.8919 32.1266 50.262C32.2474 50.5362 32.5158 50.6993 32.7972 50.6993C32.8959 50.6993 32.9962 50.6791 33.0923 50.6369C34.6499 49.9504 35.6563 48.4073 35.6563 46.7058C35.6563 45.5592 35.2098 44.4806 34.3988 43.6684C34.362 43.6315 34.3245 43.5953 34.2865 43.56C34.8496 43.3345 35.3673 42.9935 35.7977 42.555C36.6112 41.7257 37.0471 40.6403 37.0254 39.4983C37.001 38.2327 36.4176 37.0956 35.5156 36.3231C36.9485 35.6265 37.9387 34.156 37.9387 32.4585C37.9387 31.3107 37.4921 30.232 36.6812 29.4209C36.596 29.3356 36.5079 29.2545 36.4168 29.1773C36.8624 28.9591 37.2722 28.666 37.6239 28.3075C38.4374 27.4785 38.8734 26.3929 38.8517 25.251Z" fill="#00386E" stroke="#00386E" stroke-width="1.5"/>
<path d="M47.6602 17.9468L47.4962 17.3343C47.3215 16.6825 46.8798 16.1268 46.284 15.8096C45.6883 15.4924 44.9806 15.436 44.3425 15.6549L41.7239 16.5526C40.5133 16.9676 39.8244 18.2612 40.1557 19.4971L40.2217 19.7436V19.7437C40.5118 20.8259 41.5006 21.5552 42.5852 21.5552C42.7395 21.5552 42.8959 21.5405 43.0523 21.5098L45.7689 20.9779C46.4311 20.8483 47.0158 20.4456 47.373 19.8731C47.7302 19.3008 47.8349 18.5986 47.6602 17.9468ZM46.1302 19.0978C45.985 19.3305 45.7567 19.4878 45.4874 19.5405L42.7709 20.0724C42.2671 20.1707 41.7695 19.86 41.6367 19.3648L41.5707 19.1182C41.438 18.6229 41.7139 18.1047 42.199 17.9383L44.8176 17.0407C45.0772 16.9516 45.3534 16.9737 45.5956 17.1027C45.8376 17.2316 46.0102 17.4486 46.0812 17.7135L46.2453 18.326C46.3163 18.591 46.2754 18.865 46.1302 19.0978Z" fill="#00386E" stroke="#00386E" stroke-width="1.5"/>
<path d="M42.4861 9.23117C42.5092 8.55674 42.2488 7.89628 41.7716 7.41912L41.3233 6.97077C40.8461 6.49371 40.186 6.23316 39.5113 6.2563C38.8369 6.27935 38.1958 6.58434 37.7524 7.09304L35.9336 9.1798C35.0926 10.1446 35.1428 11.6091 36.0478 12.5142L36.2282 12.6946V12.6945C36.7021 13.1684 37.3291 13.4078 37.9577 13.4078C38.5297 13.4078 39.1029 13.2095 39.5625 12.8088L41.6492 10.9899C42.1579 10.5466 42.4629 9.9056 42.4861 9.23117ZM40.6867 9.88577L38.6 11.7047C38.2133 12.0417 37.6265 12.0215 37.2639 11.6589C37.2639 11.6589 37.2639 11.6589 37.2639 11.6588L37.0835 11.4785C36.7209 11.1159 36.7008 10.529 37.0378 10.1424L38.8566 8.05566C39.2097 7.63162 39.9055 7.60711 40.2875 8.00663L40.7358 8.45498C40.9298 8.64903 41.0315 8.90685 41.0221 9.18107C41.0127 9.45529 40.8936 9.70549 40.6867 9.88577Z" fill="#00386E" stroke="#00386E" stroke-width="1.5"/>
<path d="M28.999 8.52122L29.2454 8.58723C29.4547 8.64329 29.6658 8.67015 29.8739 8.67015C30.8945 8.67015 31.8454 8.02453 32.1901 7.01894L33.0879 4.40043C33.3068 3.76204 33.2503 3.05441 32.9331 2.45879C32.6158 1.86317 32.0602 1.42147 31.4084 1.24685L30.796 1.08269C30.1441 0.908076 29.4419 1.01286 28.8695 1.37C28.297 1.72723 27.8944 2.31191 27.7647 2.97413L27.2329 5.69069C26.987 6.94667 27.7628 8.18996 28.999 8.52122ZM28.6704 5.97214L29.2022 3.25558C29.2947 2.71182 29.8896 2.34228 30.4168 2.49766L31.0292 2.66182C31.2941 2.73282 31.5111 2.90528 31.64 3.14738C31.769 3.38947 31.791 3.66585 31.7021 3.92532L30.8043 6.54383C30.638 7.029 30.1195 7.30508 29.6244 7.17226L29.3779 7.10625C28.8828 6.97343 28.572 6.47528 28.6704 5.97214Z" fill="#00386E" stroke="#00386E" stroke-width="1.5"/>
</svg>
